# xmcd
#
# Track frame offsets: 
#        150
#        14368
#        34177
#        51550
#        62778
#        75776
#        92363
#        108065
#        123317
#        140626
#        156002
#        172645
#
# Disc length: 2465 seconds
#
# Revision: 0
# Processed by: cddbd v1.5.2PL0 Copyright (c) Steve Scherf et al.
# Submitted via: ExactAudioCopy v1.0b3
#
DISCID=88099f0c
DTITLE=Julie Roberts - Alive
DYEAR=2011
DGENRE=Country
TTITLE0=Mama Said Don't
TTITLE1=Stronger
TTITLE2=Alive
TTITLE3=You Got Me
TTITLE4=Yesterday's Blue
TTITLE5=Ain't No Thing
TTITLE6=One For The Road
TTITLE7=Let's Fight
TTITLE8=Whiskey And You
TTITLE9=Somebody Does
TTITLE10=Carolina From My Soul
TTITLE11=Nascar Party
EXTD=
EXTT0=
EXTT1=
EXTT2=
EXTT3=
EXTT4=
EXTT5=
EXTT6=
EXTT7=
EXTT8=
EXTT9=
EXTT10=
EXTT11=
PLAYORDER=
